<svg xmlns="http://www.w3.org/2000/svg" width="22.942" height="18.937" viewBox="0 0 22.942 18.937">
  <g id="ada" transform="translate(-0.011 -0.01)">
    <path id="Shape" d="M.379.056c.5-.233,1.11.307.845.754A.687.687,0,0,1,.186.993.554.554,0,0,1,.379.056" transform="translate(10.822 0.01)" fill="#3cc8c8"/>
    <path id="Shape-2" d="M.343.027A.491.491,0,0,1,1,.46c.032.321-.407.557-.717.4A.438.438,0,0,1,.343.027" transform="translate(5.479 0.557)" fill="#3cc8c8"/>
    <path id="Shape-3" d="M.4.9A.437.437,0,0,1,.306.043a.545.545,0,0,1,.732.435A.546.546,0,0,1,.4.9" transform="translate(16.44 0.535)" fill="#3cc8c8"/>
    <path id="Shape-4" d="M.4.092C.906-.195,1.631.233,1.552.76A.8.8,0,0,1,.289,1.24.658.658,0,0,1,.4.092" transform="translate(6.649 2.537)" fill="#3cc8c8"/>
    <path id="Shape-5" d="M.075.4a.83.83,0,0,1,1.4-.03A.717.717,0,0,1,.964,1.39C.363,1.49-.209.91.075.4" transform="translate(14.724 2.532)" fill="#3cc8c8"/>
    <path id="Shape-6" d="M0,.813A.921.921,0,0,1,.931,0a1.034,1.034,0,0,1,.8.462A.782.782,0,0,1,1.3,1.578a1.351,1.351,0,0,1-.684.053A.893.893,0,0,1,0,.813" transform="translate(10.552 3.08)" fill="#3cc8c8"/>
    <path id="Shape-7" d="M.341.072c.464-.255,1.09.21.914.66a.679.679,0,0,1-1.018.3.549.549,0,0,1,.1-.96" transform="translate(2.215 4.474)" fill="#3cc8c8"/>
    <path id="Shape-8" d="M.279.1c.394-.273,1.043.04,1,.484a.638.638,0,0,1-.926.5A.546.546,0,0,1,.279.1" transform="translate(19.451 4.443)" fill="#3cc8c8"/>
    <path id="Shape-9" d="M1.065.074A1.657,1.657,0,0,1,2.856.632,1.316,1.316,0,0,1,2.327,2.59,1.635,1.635,0,0,1,.1,1.872a1.355,1.355,0,0,1,.96-1.8" transform="translate(11.738 5.278)" fill="#3cc8c8"/>
    <path id="Shape-10" d="M.887.127A1.657,1.657,0,0,1,2.924.736,1.316,1.316,0,0,1,2.285,2.6,1.651,1.651,0,0,1,.165,2,1.333,1.333,0,0,1,.887.127" transform="translate(8.105 5.293)" fill="#3cc8c8"/>
    <path id="Shape-11" d="M.015.712A.948.948,0,0,1,.948,0a.979.979,0,0,1,.907.811.916.916,0,0,1-.9.839A.852.852,0,0,1,.015.712" transform="translate(5.162 5.874)" fill="#3cc8c8"/>
    <path id="Shape-12" d="M.486.1a.923.923,0,0,1,1.337.72A.926.926,0,0,1,.418,1.51.781.781,0,0,1,.486.1" transform="translate(15.96 5.868)" fill="#3cc8c8"/>
    <path id="Shape-13" d="M1.154.047A1.643,1.643,0,0,1,2.911.711a1.283,1.283,0,0,1-.345,1.722,1.662,1.662,0,0,1-2.41-.454,1.362,1.362,0,0,1,1-1.932" transform="translate(6.288 8.103)" fill="#3cc8c8"/>
    <path id="Shape-14" d="M1.1.054A1.662,1.662,0,0,1,2.862.639a1.3,1.3,0,0,1-.445,1.893A1.669,1.669,0,0,1,.189,2.04,1.356,1.356,0,0,1,1.1.054" transform="translate(13.566 8.093)" fill="#3cc8c8"/>
    <path id="Shape-15" d="M.528.039c.576-.195,1.215.373.981.884a.816.816,0,0,1-1.255.294A.671.671,0,0,1,.528.039" transform="translate(2.623 8.796)" fill="#3cc8c8"/>
    <path id="Shape-16" d="M0,.828A.825.825,0,0,1,.823,0c.395.056.778.34.747.724.036.507-.648.851-1.131.613A.961.961,0,0,1,0,.828" transform="translate(18.768 8.748)" fill="#3cc8c8"/>
    <path id="Shape-17" d="M.306.036c.347-.135.775.133.7.477C.984.9.34,1.052.1.727A.436.436,0,0,1,.306.036Z" transform="translate(0.011 9.05)" fill="#3cc8c8"/>
    <path id="Shape-18" d="M.231.071A.527.527,0,0,1,.963.282C1.128.56.827.942.476.895A.439.439,0,0,1,.231.071" transform="translate(21.944 9.007)" fill="#3cc8c8"/>
    <path id="Shape-19" d="M1.207.039a1.54,1.54,0,0,1,1.9,1.307,1.513,1.513,0,0,1-1.84,1.4A1.438,1.438,0,0,1,0,1.373,1.444,1.444,0,0,1,1.207.039" transform="translate(8.117 10.908)" fill="#3cc8c8"/>
    <path id="Shape-20" d="M1.186.045A1.531,1.531,0,0,1,3.107,1.364a1.511,1.511,0,0,1-1.8,1.394A1.4,1.4,0,0,1,.051,1.068,1.482,1.482,0,0,1,1.186.045" transform="translate(11.75 10.9)" fill="#3cc8c8"/>
    <path id="Shape-21" d="M.793.01c.641-.1,1.241.541.981,1.084a.968.968,0,0,1-1.55.263A.807.807,0,0,1,.793.01" transform="translate(5.178 11.452)" fill="#3cc8c8"/>
    <path id="Shape-22" d="M.588.055A.9.9,0,0,1,1.817.837a.928.928,0,0,1-1.4.674A.788.788,0,0,1,.588.055" transform="translate(15.977 11.432)" fill="#3cc8c8"/>
    <path id="Shape-23" d="M.063.8C-.16.431.246-.062.709.007A.806.806,0,0,1,1.248.3c.03.221.081.484-.124.654A.676.676,0,0,1,.063.8" transform="translate(19.464 13.337)" fill="#3cc8c8"/>
    <path id="Shape-24" d="M.318.083c.433-.257,1.055.126.958.578a.67.67,0,0,1-.987.4A.547.547,0,0,1,.318.083" transform="translate(2.235 13.364)" fill="#3cc8c8"/>
    <path id="Shape-25" d="M.577.059A.9.9,0,0,1,1.811.834c.042.616-.851,1.042-1.4.673A.787.787,0,0,1,.577.059" transform="translate(10.525 14.224)" fill="#3cc8c8"/>
    <path id="Shape-26" d="M.484.066A.77.77,0,0,1,1.57.713a.74.74,0,0,1-.856.675A.837.837,0,0,1,0,.815.766.766,0,0,1,.484.066" transform="translate(6.658 15.043)" fill="#3cc8c8"/>
    <path id="Shape-27" d="M.4.09A.785.785,0,0,1,1.552.725a.8.8,0,0,1-1.246.53A.663.663,0,0,1,.4.09" transform="translate(14.765 15.026)" fill="#3cc8c8"/>
    <path id="Shape-28" d="M.081.726C-.139.427.121.068.479,0c.288.052.593.246.532.544a.532.532,0,0,1-.93.181" transform="translate(16.475 17.47)" fill="#3cc8c8"/>
    <path id="Shape-29" d="M0,.42A.556.556,0,0,1,.612.01.441.441,0,0,1,.8.839.547.547,0,0,1,0,.42" transform="translate(5.486 17.517)" fill="#3cc8c8"/>
    <path id="Shape-30" d="M.037.41a.662.662,0,0,1,1.27.159c-.03.1-.057.2-.084.293a.742.742,0,0,1-.54.284C.259,1.191-.122.764.037.41" transform="translate(10.79 17.798)" fill="#3cc8c8"/>
  </g>
</svg>
