<svg xmlns="http://www.w3.org/2000/svg" width="21.125" height="18" viewBox="0 0 21.125 18">
  <g id="btc" transform="translate(0 0)">
    <path id="Shape" d="M20.808,11.178C19.4,16,13.666,18.933,8.006,17.73S-1.1,11.645.317,6.823,7.458-.934,13.117.27s9.1,6.085,7.692,10.908Z" transform="translate(0 0)" fill="#f7931a"/>
    <path id="Shape-2" d="M3.938,11.152l.473-1.616c-.3-.064-.607-.131-.923-.2l-.475,1.624-1.157-.247.48-1.641L0,8.566.575,7.434s.854.194.842.18a.435.435,0,0,0,.532-.234l1.3-4.444c.014-.21-.071-.474-.54-.574.018-.011-.842-.178-.842-.178l.309-1.055,2.337.493L4.988,0,6.146.246l-.464,1.59c.311.06.624.122.928.186L7.072.443l1.16.246L7.756,2.311c1.464.429,2.534,1.073,2.324,2.271h0A1.692,1.692,0,0,1,8.6,6.033a1.653,1.653,0,0,1,1.065,2.4C9.04,9.95,7.553,10.079,5.576,9.76L5.1,11.4Z" transform="translate(5.14 3.136)" fill="#fff"/>
  </g>
</svg>
