<svg xmlns="http://www.w3.org/2000/svg" width="21.894" height="17.956" viewBox="0 0 21.894 17.956">
  <g id="xem" transform="translate(-0.011 -0.009)">
    <path id="Shape" d="M10.953,17.955l-.125-.052A18.916,18.916,0,0,1,.733,7.035,14.983,14.983,0,0,1,.189,4.8,16.711,16.711,0,0,1,0,2.519c0-.129-.021-.112.125-.172A25.2,25.2,0,0,1,8.267.132,28.536,28.536,0,0,1,11.475,0c.606.009,1.2.043,1.8.094a25.4,25.4,0,0,1,8.444,2.215c.042.017.073.034.115.052a.086.086,0,0,1,.063.086v.129c-.011.446-.031.884-.073,1.331A14.583,14.583,0,0,1,21.507,5.8a15.331,15.331,0,0,1-1.484,3.889,18.088,18.088,0,0,1-4.41,5.3,21.736,21.736,0,0,1-4.483,2.876c-.063.034-.115.06-.178.094h0Z" transform="translate(0.011 0.009)"/>
    <path id="Shape-2" d="M.011,2.184A21.926,21.926,0,0,1,4.222.69,24.071,24.071,0,0,1,10.356,0a21.311,21.311,0,0,1,2.863.232c.011.017-.011.026-.031.026-.094.034-.2.06-.293.094A4.846,4.846,0,0,0,9.593,3.7,4.563,4.563,0,0,0,9.5,4.45a3.5,3.5,0,0,1-.188,1.124A4.394,4.394,0,0,1,5.883,8.253,5,5,0,0,1,.617,6.142,1.08,1.08,0,0,1,.5,5.858,13.455,13.455,0,0,1,.146,4.176,12.662,12.662,0,0,1,0,2.3a.4.4,0,0,0,.011-.112h0Z" transform="translate(1.005 0.782)" fill="#f7a800"/>
    <path id="Shape-3" d="M5.011,11.75c.021-.163.042-.309.052-.464a3.858,3.858,0,0,0-.658-2.4A5.024,5.024,0,0,0,2.43,7.175c-.073-.043-.157-.077-.23-.12A3.783,3.783,0,0,1,.078,4.5C-.371,2.5,1.155.581,3.548.109a5.575,5.575,0,0,1,2.5.069A17.4,17.4,0,0,1,8.02.83c.449.172.878.361,1.306.558.052.026.094.043.157.077,0,.034.011.06.011.094,0,.455-.031.919-.073,1.374a14.315,14.315,0,0,1-.366,1.992,14.669,14.669,0,0,1-2.738,5.4,17.181,17.181,0,0,1-1.181,1.339.652.652,0,0,1-.126.086" transform="translate(11.418 1.5)" fill="#67b2e8"/>
    <path id="Shape-4" d="M8.611,8.357a10.73,10.73,0,0,1-1.149-.575A19.589,19.589,0,0,1,4.305,5.627a16.907,16.907,0,0,1-2.55-2.644A14.668,14.668,0,0,1,.031.192.465.465,0,0,1,0,.107C.052.132.073.141.1.158a5.678,5.678,0,0,0,1.17.575,6.372,6.372,0,0,0,1.672.361A6.58,6.58,0,0,0,6.281.51,5.688,5.688,0,0,1,8.026.029a4.75,4.75,0,0,1,5.037,2.7,3.132,3.132,0,0,1-.293,2.782c-.073.12-.136.232-.209.343a.615.615,0,0,1-.167.189A20.36,20.36,0,0,1,8.757,8.288c-.052.026-.1.052-.146.069h0Z" transform="translate(2.353 8.731)" fill="#00c4b3"/>
  </g>
</svg>
