<svg xmlns="http://www.w3.org/2000/svg" xmlns:xlink="http://www.w3.org/1999/xlink" width="18.529" height="17" viewBox="0 0 18.529 17">
  <defs>
    <linearGradient id="linear-gradient" x2="1" gradientUnits="objectBoundingBox">
      <stop offset="0" stop-color="#11aae2"/>
      <stop offset="0.59" stop-color="#0880b7"/>
      <stop offset="1" stop-color="#016197"/>
    </linearGradient>
  </defs>
  <g id="xrp" transform="translate(0 0)">
    <path id="Shape" d="M12.249.457a3.528,3.528,0,0,0-2.1,3.091,3.618,3.618,0,0,0,.7,1.907,1.238,1.238,0,0,1-.621,1.907,1.829,1.829,0,0,1-2.248-.527,6.57,6.57,0,0,0-1.7-1.447,4.7,4.7,0,0,0-4.185,0A3.53,3.53,0,0,0,0,8.483a3.522,3.522,0,0,0,2.093,3.092,4.7,4.7,0,0,0,4.185,0,3.967,3.967,0,0,0,1.627-1.447A1.74,1.74,0,0,1,10.153,9.6a1.355,1.355,0,0,1,.621,1.907,3.52,3.52,0,0,0-.621,1.907,3.515,3.515,0,0,0,2.1,3.091,4.7,4.7,0,0,0,4.185,0,3.528,3.528,0,0,0,2.1-3.091,3.525,3.525,0,0,0-2.1-3.092,5.37,5.37,0,0,0-2.326-.461,1.483,1.483,0,0,1-1.627-1.38A1.483,1.483,0,0,1,14.108,7.1a5.61,5.61,0,0,0,2.326-.461,3.528,3.528,0,0,0,2.1-3.091,3.521,3.521,0,0,0-2.1-3.091A4.583,4.583,0,0,0,14.341,0a4.572,4.572,0,0,0-2.092.457" transform="translate(0 0)" fill="url(#linear-gradient)"/>
  </g>
</svg>
